PathFileType	4	(X/Y/Z)	Walk10.trc
DataRate	CameraRate	NumFrames	NumMarkers	Units	OrigDataRate	OrigDataStartFrame	OrigNumFrames
200.000000	200.000000	6	59	mm	200.000000	195	470
Frame#	Times		RCAR		LElbow		LFA1		LWRU		LTH3		LLFC		LTB1		LTB3		RTH2		LCAR		LTH2		LMT5		LMT1		LToe		LASI		LBHD		LUA1		C7		RFA1		RWRU		RPSI		T10		LTH4		LPSI		LACR1		LLMAL		RBHD		RUA1		LElbowM		LFHD		RElbow		LTB2		LWRR		RACR1		RFHD		RToe		RElbowM		RTB2		RLFC		RCAL		RMT5		RLMAL		LMFC		RTB1		RTH3		STRN		RTB4		RASI		RTB3		RMT1		RMFC		LTB4		RTH4		LTH1		LCAL		LMMAL		RMMAL		RTH1		RWRR
			X1	Y1	Z1	X2	Y2	Z2	X3	Y3	Z3	X4	Y4	Z4	X5	Y5	Z5	X6	Y6	Z6	X7	Y7	Z7	X8	Y8	Z8	X9	Y9	Z9	X10	Y10	Z10	X11	Y11	Z11	X12	Y12	Z12	X13	Y13	Z13	X14	Y14	Z14	X15	Y15	Z15	X16	Y16	Z16	X17	Y17	Z17	X18	Y18	Z18	X19	Y19	Z19	X20	Y20	Z20	X21	Y21	Z21	X22	Y22	Z22	X23	Y23	Z23	X24	Y24	Z24	X25	Y25	Z25	X26	Y26	Z26	X27	Y27	Z27	X28	Y28	Z28	X29	Y29	Z29	X30	Y30	Z30	X31	Y31	Z31	X32	Y32	Z32	X33	Y33	Z33	X34	Y34	Z34	X35	Y35	Z35	X36	Y36	Z36	X37	Y37	Z37	X38	Y38	Z38	X39	Y39	Z39	X40	Y40	Z40	X41	Y41	Z41	X42	Y42	Z42	X43	Y43	Z43	X44	Y44	Z44	X45	Y45	Z45	X46	Y46	Z46	X47	Y47	Z47	X48	Y48	Z48	X49	Y49	Z49	X50	Y50	Z50	X51	Y51	Z51	X52	Y52	Z52	X53	Y53	Z53	X54	Y54	Z54	X55	Y55	Z55	X56	Y56	Z56	X57	Y57	Z57	X58	Y58	Z58	X59	Y59	Z59

195	0.975	-403.56	811.81	473.79	-420.83	1131.4	-158.82	-368.28	986.24	-153.1	-309.39	868.6	-127.24	-385.19	585.26	-30.383	-397.82	487.91	-21.65	-442.57	359.36	49.111	-598.05	257.75	53.447	-273.33	712.83	276.43	-230.98	846.62	-133.69	-322.39	684.46	-19.618	-725.48	98.627	-5.6051	-682.31	75.423	70.662	-652.42	43.315	51.069	-358.59	1020.3	-8.3065	-378.15	1645.6	63.253	-402.32	1289.1	-133.61	-439.11	1504.2	130.43	-475.36	985.72	459.47	-457.89	850.75	467.1	-554.36	1017	188.66	-558.63	1284.1	130.35	-391.11	676.91	-39.922	-562.64	1008.5	111.28	-372.77	1459.7	-37.168	-731.53	215.76	17.264	-374.71	1641.2	205.21	-420.25	1277.9	388.22	-456.84	1121	-89.297	-195.7	1633.9	103	-480.7	1134.6	428.82	-533.24	331.78	-18.024	-245.99	899.6	-83.867	-521.55	1417	262.04	-195.2	1630.5	179.41	-162.98	30.93	165.94	-506.99	1119	353.49	-311.47	268.78	233.42	-318.41	490.37	268.16	-413.65	33.484	131.39	-269.52	24.365	221.32	-359.93	66.726	184.62	-366.31	490.47	106.76	-271.42	370.02	185.83	-327.38	605.8	286.13	-278.07	1234.8	117.47	-286.17	279.26	168.34	-334.77	1031.8	275.46	-303.65	188.82	154.8	-215.79	38.746	143.91	-309.67	517.28	138.72	-517.45	310.65	53.023	-340.15	698.06	307.75	-394.32	769.98	-48.786	-792.58	237.95	69.002	-691.07	203.68	94.728	-324.44	95.031	107.77	-359.08	790.5	322.61	-399.84	848.79	418.29
196	0.98	-392.25	813.16	473.17	-416.67	1132.2	-158.35	-364.99	986.78	-153	-306.78	868.73	-127.57	-374.7	586.78	-30.462	-385.69	489.75	-21.759	-429.5	360.95	48.655	-584.62	258.83	52.857	-269.54	712.59	276.55	-228.55	846.16	-134.12	-313.24	686.82	-19.752	-710.83	100.36	-7.7862	-666.86	76.329	67.863	-636.86	44.495	47.518	-352.97	1021.1	-8.4819	-372.14	1646.7	63.239	-397.69	1289.8	-133.47	-433.24	1505.2	130.53	-465.74	986.37	459.74	-447.08	851.51	467.01	-548.61	1018.2	189.01	-552.72	1285.1	130.89	-381.89	678.34	-40.028	-556.83	1009.6	111.61	-367.38	1460.6	-37.291	-718.15	216.77	16.842	-368.79	1642.2	205.2	-413.02	1279	388.39	-452.47	1122.1	-88.733	-189.73	1634.8	103.1	-472.62	1135.3	429.41	-520.25	333.47	-18.38	-243.1	899.19	-84.196	-515.39	1418	262.48	-189.26	1631.3	179.5	-162.97	30.876	166.04	-499.38	1119.7	354.22	-310.67	268.67	233.49	-316.56	490.38	268.24	-413.69	33.547	131.39	-269.53	24.352	221.33	-359.9	66.769	184.62	-354.24	492.33	106.69	-270.31	369.8	185.93	-324.61	606.01	286.34	-272.24	1235.8	117.29	-285.38	279.1	168.37	-328.95	1032.8	275.32	-303.22	188.73	154.84	-215.8	38.751	143.92	-308.02	517.24	138.92	-504.18	311.98	52.502	-336.55	698.36	307.81	-386.36	771.35	-48.738	-779.36	237.61	69.155	-677.27	204.19	94.112	-324.36	95.027	107.78	-354.61	790.99	322.79	-389.32	850.31	417.73
197	0.985	-380.85	814.6	472.55	-412.54	1133	-157.91	-361.73	987.33	-152.91	-304.21	868.86	-127.92	-364.21	588.38	-30.546	-373.64	491.67	-21.859	-416.39	362.53	48.175	-571.02	259.71	52.275	-265.81	712.34	276.63	-226.17	845.72	-134.6	-304.12	689.24	-19.864	-695.77	101.73	-9.8464	-651.03	77.023	65.217	-620.83	45.531	44.173	-347.35	1021.8	-8.6283	-366.15	1647.8	63.203	-393.09	1290.5	-133.33	-427.4	1506.2	130.62	-456.1	987.05	459.99	-436.2	852.31	466.88	-542.87	1019.3	189.34	-546.82	1286	131.42	-372.67	679.83	-40.146	-551.04	1010.7	111.9	-361.99	1461.5	-37.416	-704.54	217.39	16.448	-362.89	1643.3	205.17	-405.79	1280.1	388.55	-448.12	1123.1	-88.179	-183.77	1635.7	103.17	-464.53	1136.1	430	-507.24	335.08	-18.727	-240.25	898.78	-84.562	-509.26	1419	262.89	-183.34	1632.1	179.58	-162.97	30.814	166.14	-491.76	1120.4	354.94	-309.92	268.57	233.55	-314.79	490.41	268.3	-413.74	33.616	131.37	-269.54	24.34	221.34	-359.88	66.816	184.61	-342.26	494.25	106.6	-269.25	369.58	186.03	-321.9	606.22	286.52	-266.42	1236.8	117.13	-284.63	278.96	168.4	-323.17	1033.7	275.2	-302.8	188.65	154.87	-215.8	38.752	143.93	-306.46	517.22	139.09	-490.82	313.21	51.971	-333	698.64	307.84	-378.39	772.76	-48.699	-765.95	236.8	69.286	-663.24	204.4	93.539	-324.28	95.025	107.79	-350.19	791.49	322.94	-378.7	851.9	417.17
198	0.99	-369.38	816.12	471.94	-408.45	1133.8	-157.48	-358.51	987.88	-152.86	-301.68	868.99	-128.29	-353.73	590.05	-30.634	-361.68	493.64	-21.945	-403.23	364.08	47.68	-557.28	260.41	51.704	-262.13	712.09	276.67	-223.83	845.3	-135.12	-295.01	691.7	-19.952	-680.3	102.74	-11.775	-634.84	77.506	62.746	-604.38	46.416	41.061	-341.72	1022.5	-8.7404	-360.18	1648.8	63.146	-388.53	1291.3	-133.2	-421.57	1507.2	130.7	-446.43	987.75	460.24	-425.26	853.15	466.73	-537.15	1020.4	189.63	-540.94	1286.9	131.93	-363.43	681.37	-40.276	-545.27	1011.8	112.16	-356.62	1462.3	-37.542	-690.71	217.61	16.078	-357.02	1644.3	205.11	-398.58	1281.2	388.7	-443.79	1124	-87.636	-177.84	1636.5	103.23	-456.45	1136.9	430.59	-494.19	336.6	-19.062	-237.44	898.38	-84.965	-503.16	1420	263.28	-177.45	1633	179.64	-162.96	30.746	166.24	-484.13	1121.1	355.67	-309.22	268.48	233.59	-313.09	490.45	268.33	-413.78	33.69	131.34	-269.55	24.328	221.35	-359.85	66.867	184.59	-330.36	496.23	106.5	-268.23	369.37	186.12	-319.24	606.44	286.66	-260.61	1237.8	116.97	-283.9	278.83	168.42	-317.43	1034.7	275.12	-302.4	188.57	154.9	-215.81	38.751	143.94	-304.96	517.19	139.21	-477.36	314.33	51.434	-329.48	698.88	307.84	-370.39	774.2	-48.671	-752.35	235.55	69.38	-649	204.33	93.008	-324.19	95.025	107.79	-345.8	791.97	323.07	-367.99	853.55	416.6
199	0.995	-357.83	817.73	471.34	-404.39	1134.6	-157.06	-355.33	988.44	-152.83	-299.19	869.12	-128.68	-343.27	591.77	-30.723	-349.81	495.66	-22.014	-390.05	365.6	47.177	-543.39	260.91	51.148	-258.5	711.82	276.69	-221.52	844.89	-135.7	-285.91	694.2	-20.015	-664.45	103.38	-13.563	-618.31	77.782	60.465	-587.53	47.149	38.204	-336.06	1023.3	-8.8138	-354.22	1649.8	63.069	-383.99	1292	-133.08	-415.75	1508.1	130.76	-436.74	988.49	460.47	-414.26	854.04	466.54	-531.44	1021.4	189.89	-535.07	1287.8	132.43	-354.19	682.94	-40.418	-539.51	1013	112.38	-351.26	1463.2	-37.666	-676.66	217.44	15.728	-351.16	1645.3	205.04	-391.38	1282.3	388.83	-439.5	1125	-87.104	-171.92	1637.4	103.28	-448.38	1137.7	431.18	-481.13	338.01	-19.38	-234.67	897.99	-85.408	-497.08	1421	263.65	-171.57	1633.8	179.69	-162.96	30.674	166.33	-476.49	1121.8	356.4	-308.58	268.42	233.62	-311.47	490.51	268.34	-413.82	33.769	131.31	-269.56	24.317	221.36	-359.84	66.925	184.57	-318.55	498.26	106.4	-267.26	369.17	186.2	-316.64	606.66	286.77	-254.81	1238.7	116.83	-283.2	278.71	168.45	-311.72	1035.6	275.07	-302	188.5	154.93	-215.81	38.747	143.95	-303.5	517.18	139.29	-463.84	315.34	50.899	-325.99	699.09	307.82	-362.37	775.67	-48.656	-738.58	233.86	69.427	-634.57	203.98	92.518	-324.09	95.025	107.79	-341.44	792.45	323.16	-357.19	855.28	416.03
200	1	-346.23	819.43	470.74	-400.37	1135.3	-156.67	-352.19	988.99	-152.81	-296.73	869.25	-129.08	-332.82	593.54	-30.808	-338.04	497.71	-22.061	-376.85	367.1	46.678	-529.37	261.22	50.612	-254.91	711.53	276.67	-219.26	844.5	-136.31	-276.82	696.72	-20.053	-648.24	103.67	-15.204	-601.46	77.855	58.386	-570.3	47.73	35.614	-330.38	1024.1	-8.8456	-348.29	1650.8	62.975	-379.48	1292.7	-132.96	-409.94	1509	130.8	-427.03	989.24	460.69	-403.21	854.97	466.32	-525.75	1022.5	190.12	-529.21	1288.7	132.92	-344.95	684.55	-40.569	-533.77	1014.1	112.57	-345.9	1464	-37.787	-662.4	216.89	15.392	-345.32	1646.3	204.95	-384.19	1283.4	388.96	-435.22	1126	-86.581	-166.02	1638.2	103.31	-440.32	1138.5	431.77	-468.04	339.32	-19.675	-231.93	897.6	-85.889	-491.02	1422	263.99	-165.72	1634.7	179.73	-162.95	30.599	166.42	-468.85	1122.5	357.13	-307.98	268.36	233.64	-309.93	490.57	268.32	-413.85	33.854	131.26	-269.57	24.307	221.36	-359.82	66.99	184.55	-306.84	500.34	106.3	-266.33	368.97	186.26	-314.08	606.89	286.84	-249.01	1239.7	116.71	-282.53	278.6	168.47	-306.05	1036.6	275.08	-301.61	188.44	154.96	-215.81	38.742	143.95	-302.07	517.17	139.32	-450.24	316.25	50.374	-322.53	699.26	307.78	-354.31	777.15	-48.653	-724.62	231.75	69.419	-619.94	203.35	92.068	-323.99	95.026	107.79	-337.12	792.91	323.23	-346.31	857.08	415.46
